# xmcd
#
# Track frame offsets:
#	150
#	16022
#	32490
#	50856
#	70388
#	83618
#	102192
#	121556
#	134014
#	148147
#	162556
#	177302
#	190269
#	208458
#	219989
#	234946
#	248679
#	260896
#
# Disc length: 3651 seconds
#
# Revision: 0
# Processed by: cddbd v1.5.2PL0 Copyright (c) Steve Scherf et al.
# Submitted via: MusicManager 7.3.0.0 
#
DISCID=080e4112
DTITLE=JOHNNY MARKS - UNDER YOUR SPELL
DYEAR=1999
DGENRE=country
TTITLE0=FOREVER AND EVER AMEN
TTITLE1=LOVE NEVER BROKE ANYONE'S HEART
TTITLE2=FAMILY TRADITION
TTITLE3=IT'S A WORKING I AM
TTITLE4=SOMETIMES I GET LUCKY AND FORGET
TTITLE5=HOME TO DONEGAL
TTITLE6=JESSIE
TTITLE7=UNDER YOUR SPELL
TTITLE8=A SPECIAL ROSE
TTITLE9=HE DRINKS TEQUILA
TTITLE10=EACH TIME YOU GO AWAY
TTITLE11=A BETTER MAN
TTITLE12=CALIFORNIA BLUE
TTITLE13=TWO OF A KIND
TTITLE14=MARIA
TTITLE15=DIGGING UP BONES
TTITLE16=AM I LOSING YOU
TTITLE17=WHEN THE GRASS GROWS OVER ME
EXTD=
EXTT0=
EXTT1=
EXTT2=
EXTT3=
EXTT4=
EXTT5=
EXTT6=
EXTT7=
EXTT8=
EXTT9=
EXTT10=
EXTT11=
EXTT12=
EXTT13=
EXTT14=
EXTT15=
EXTT16=
EXTT17=
PLAYORDER=
